<svg width="600" height="400" viewBox="0 0 600 400" fill="none" xmlns="http://www.w3.org/2000/svg">
  <!-- Background -->
  <rect width="600" height="400" rx="8" fill="#F8FAFC"/>
  
  <!-- Design Canvas with Grid -->
  <rect x="30" y="30" width="340" height="340" rx="8" fill="white" stroke="#E2E8F0" stroke-width="2"/>
  <line x1="30" y1="90" x2="370" y2="90" stroke="#E2E8F0" stroke-width="1"/>
  <line x1="30" y1="150" x2="370" y2="150" stroke="#E2E8F0" stroke-width="1"/>
  <line x1="30" y1="210" x2="370" y2="210" stroke="#E2E8F0" stroke-width="1"/>
  <line x1="30" y1="270" x2="370" y2="270" stroke="#E2E8F0" stroke-width="1"/>
  <line x1="98" y1="30" x2="98" y2="370" stroke="#E2E8F0" stroke-width="1"/>
  <line x1="166" y1="30" x2="166" y2="370" stroke="#E2E8F0" stroke-width="1"/>
  <line x1="234" y1="30" x2="234" y2="370" stroke="#E2E8F0" stroke-width="1"/>
  <line x1="302" y1="30" x2="302" y2="370" stroke="#E2E8F0" stroke-width="1"/>
  
  <!-- Website Layout Elements -->
  <rect x="45" y="45" width="310" height="30" rx="4" fill="#3B82F6"/>
  <rect x="60" y="52" width="80" height="16" rx="3" fill="white"/>
  <rect x="260" y="52" width="25" height="16" rx="3" fill="white" fill-opacity="0.6"/>
  <rect x="295" y="52" width="25" height="16" rx="3" fill="white" fill-opacity="0.6"/>
  <rect x="330" y="52" width="25" height="16" rx="3" fill="white" fill-opacity="0.6"/>
  
  <!-- Hero Section -->
  <rect x="45" y="95" width="310" height="120" rx="4" fill="#DBEAFE"/>
  <rect x="60" y="120" width="140" height="25" rx="3" fill="#1E40AF"/>
  <rect x="60" y="155" width="120" height="10" rx="2" fill="#1E40AF" fill-opacity="0.6"/>
  <rect x="60" y="175" width="100" height="10" rx="2" fill="#1E40AF" fill-opacity="0.6"/>
  <rect x="60" y="195" width="80" height="20" rx="10" fill="#3B82F6"/>
  <circle cx="285" cy="155" r="40" fill="#93C5FD"/>
  <circle cx="285" cy="155" r="25" fill="#60A5FA"/>
  
  <!-- Content Section -->
  <rect x="45" y="230" width="150" height="125" rx="4" fill="#F1F5F9"/>
  <rect x="60" y="245" width="120" height="15" rx="2" fill="#334155"/>
  <rect x="60" y="270" width="100" height="10" rx="2" fill="#64748B"/>
  <rect x="60" y="290" width="100" height="10" rx="2" fill="#64748B"/>
  <rect x="60" y="310" width="100" height="10" rx="2" fill="#64748B"/>
  <rect x="60" y="330" width="80" height="10" rx="2" fill="#64748B"/>
  
  <rect x="205" y="230" width="150" height="125" rx="4" fill="#F1F5F9"/>
  <rect x="220" y="245" width="120" height="15" rx="2" fill="#334155"/>
  <rect x="220" y="270" width="100" height="10" rx="2" fill="#64748B"/>
  <rect x="220" y="290" width="100" height="10" rx="2" fill="#64748B"/>
  <rect x="220" y="310" width="100" height="10" rx="2" fill="#64748B"/>
  <rect x="220" y="330" width="80" height="10" rx="2" fill="#64748B"/>
  
  <!-- Design Tools -->
  <rect x="400" y="30" width="170" height="340" rx="8" fill="white" stroke="#E2E8F0" stroke-width="2"/>
  
  <!-- Color Palette -->
  <rect x="415" y="45" width="140" height="30" rx="4" fill="#334155"/>
  <rect x="425" y="52" width="120" height="16" rx="3" fill="white" fill-opacity="0.8"/>
  
  <!-- Color Swatches -->
  <rect x="415" y="90" width="30" height="30" rx="4" fill="#3B82F6"/>
  <rect x="455" y="90" width="30" height="30" rx="4" fill="#60A5FA"/>
  <rect x="495" y="90" width="30" height="30" rx="4" fill="#93C5FD"/>
  <rect x="535" y="90" width="30" height="30" rx="4" fill="#DBEAFE"/>
  
  <rect x="415" y="130" width="30" height="30" rx="4" fill="#1E40AF"/>
  <rect x="455" y="130" width="30" height="30" rx="4" fill="#1D4ED8"/>
  <rect x="495" y="130" width="30" height="30" rx="4" fill="#2563EB"/>
  <rect x="535" y="130" width="30" height="30" rx="4" fill="#3B82F6"/>
  
  <!-- Typography -->
  <rect x="415" y="180" width="140" height="30" rx="4" fill="#334155"/>
  <rect x="425" y="187" width="120" height="16" rx="3" fill="white" fill-opacity="0.8"/>
  
  <rect x="415" y="220" width="140" height="20" rx="3" fill="#F1F5F9"/>
  <rect x="425" y="225" width="100" height="10" rx="2" fill="#334155"/>
  
  <rect x="415" y="250" width="140" height="15" rx="3" fill="#F1F5F9"/>
  <rect x="425" y="252.5" width="80" height="10" rx="2" fill="#64748B"/>
  
  <rect x="415" y="275" width="140" height="12" rx="3" fill="#F1F5F9"/>
  <rect x="425" y="276" width="60" height="10" rx="2" fill="#94A3B8"/>
  
  <!-- Design Elements -->
  <rect x="415" y="305" width="140" height="30" rx="4" fill="#334155"/>
  <rect x="425" y="312" width="120" height="16" rx="3" fill="white" fill-opacity="0.8"/>
  
  <rect x="415" y="345" width="30" height="15" rx="7.5" fill="#3B82F6"/>
  <rect x="455" y="345" width="30" height="15" rx="2" fill="#3B82F6"/>
  <circle cx="505" cy="352.5" r="7.5" fill="#3B82F6"/>
  <path d="M535 345L550 360H520L535 345Z" fill="#3B82F6"/>
  
  <!-- Designer's Cursor -->
  <circle cx="285" cy="155" r="5" fill="#EC4899"/>
  <path d="M285 140L290 155H280L285 140Z" fill="#EC4899"/>
</svg> 