<svg width="600" height="400" viewBox="0 0 600 400" fill="none" xmlns="http://www.w3.org/2000/svg">
  <!-- Background -->
  <rect width="600" height="400" rx="8" fill="#F8FAFC"/>
  
  <!-- Dashboard Grid -->
  <rect x="30" y="30" width="340" height="340" rx="8" fill="white" stroke="#E2E8F0" stroke-width="2"/>
  
  <!-- Dashboard Header -->
  <rect x="30" y="30" width="340" height="60" rx="8 8 0 0" fill="#F1F5F9"/>
  <rect x="50" y="45" width="140" height="30" rx="4" fill="#334155"/>
  <rect x="60" y="55" width="120" height="10" rx="2" fill="white"/>
  <circle cx="330" cy="60" r="15" fill="#E2E8F0"/>
  <circle cx="290" cy="60" r="15" fill="#E2E8F0"/>
  
  <!-- Traffic Analytics Graph -->
  <rect x="50" y="110" width="300" height="30" rx="4" fill="#334155"/>
  <rect x="60" y="120" width="100" height="10" rx="2" fill="white"/>
  
  <rect x="50" y="150" width="300" height="100" rx="4" fill="#F8FAFC" stroke="#E2E8F0" stroke-width="1"/>
  <path d="M70 230 L120 200 L170 220 L220 180 L270 190 L320 150" stroke="#3B82F6" stroke-width="3" stroke-linecap="round" stroke-linejoin="round" fill="none"/>
  <path d="M70 230 L320 230" stroke="#E2E8F0" stroke-width="1"/>
  <path d="M70 150 L70 230" stroke="#E2E8F0" stroke-width="1"/>
  
  <circle cx="120" cy="200" r="4" fill="#3B82F6"/>
  <circle cx="170" cy="220" r="4" fill="#3B82F6"/>
  <circle cx="220" cy="180" r="4" fill="#3B82F6"/>
  <circle cx="270" cy="190" r="4" fill="#3B82F6"/>
  <circle cx="320" cy="150" r="4" fill="#3B82F6"/>
  
  <!-- Security Status Panel -->
  <rect x="50" y="270" width="140" height="80" rx="4" fill="#F1F5F9" stroke="#E2E8F0" stroke-width="1"/>
  <rect x="60" y="280" width="100" height="15" rx="2" fill="#334155"/>
  <circle cx="100" cy="320" r="20" fill="#ECFDF5"/>
  <path d="M93 320 L98 325 L108 315" stroke="#10B981" stroke-width="3" stroke-linecap="round" stroke-linejoin="round" fill="none"/>
  
  <!-- Update Status Panel -->
  <rect x="210" y="270" width="140" height="80" rx="4" fill="#F1F5F9" stroke="#E2E8F0" stroke-width="1"/>
  <rect x="220" y="280" width="100" height="15" rx="2" fill="#334155"/>
  <rect x="220" y="305" width="120" height="10" rx="2" fill="#94A3B8"/>
  <rect x="220" y="325" width="100" height="10" rx="2" fill="#94A3B8"/>
  <rect x="300" y="335" width="40" height="10" rx="5" fill="#3B82F6"/>
  
  <!-- Monitoring Panel -->
  <rect x="400" y="30" width="170" height="170" rx="8" fill="white" stroke="#E2E8F0" stroke-width="2"/>
  <rect x="400" y="30" width="170" height="40" rx="8 8 0 0" fill="#F1F5F9"/>
  <rect x="415" y="45" width="120" height="10" rx="2" fill="#334155"/>
  
  <!-- Uptime Chart -->
  <rect x="415" y="85" width="140" height="15" rx="2" fill="#334155"/>
  <rect x="415" y="110" width="140" height="20" rx="4" fill="#F1F5F9" stroke="#E2E8F0" stroke-width="1"/>
  <rect x="420" y="115" width="130" height="10" rx="2" fill="#22C55E"/>
  
  <!-- Response Time -->
  <rect x="415" y="140" width="140" height="15" rx="2" fill="#334155"/>
  <rect x="415" y="165" width="140" height="10" rx="2" fill="#F1F5F9" stroke="#E2E8F0" stroke-width="1"/>
  <rect x="420" y="165" width="80" height="10" rx="2" fill="#3B82F6"/>
  
  <!-- Task Manager Panel -->
  <rect x="400" y="220" width="170" height="150" rx="8" fill="white" stroke="#E2E8F0" stroke-width="2"/>
  <rect x="400" y="220" width="170" height="40" rx="8 8 0 0" fill="#F1F5F9"/>
  <rect x="415" y="235" width="120" height="10" rx="2" fill="#334155"/>
  
  <!-- Task List -->
  <rect x="415" y="275" width="140" height="20" rx="4" fill="#F1F5F9" stroke="#E2E8F0" stroke-width="1"/>
  <rect x="420" y="280" width="100" height="10" rx="2" fill="#64748B"/>
  <circle cx="545" cy="285" r="6" fill="#22C55E"/>
  <path d="M542 285 L544 287 L548 283" stroke="white" stroke-width="1.5" stroke-linecap="round" stroke-linejoin="round" fill="none"/>
  
  <rect x="415" y="305" width="140" height="20" rx="4" fill="#F1F5F9" stroke="#E2E8F0" stroke-width="1"/>
  <rect x="420" y="310" width="90" height="10" rx="2" fill="#64748B"/>
  <circle cx="545" cy="315" r="6" fill="#EAB308"/>
  
  <rect x="415" y="335" width="140" height="20" rx="4" fill="#F1F5F9" stroke="#E2E8F0" stroke-width="1"/>
  <rect x="420" y="340" width="110" height="10" rx="2" fill="#64748B"/>
  <circle cx="545" cy="345" r="6" fill="#F43F5E"/>
  
  <!-- Decorative Elements -->
  <circle cx="520" cy="85" r="20" fill="#DBEAFE" fill-opacity="0.5"/>
  <circle cx="160" cy="45" r="10" fill="#BFDBFE" fill-opacity="0.5"/>
  <circle cx="500" cy="180" r="15" fill="#BFDBFE" fill-opacity="0.5"/>
  <circle cx="60" cy="360" r="12" fill="#BFDBFE" fill-opacity="0.5"/>
  
  <!-- Gear Icon Animation -->
  <g transform="translate(350, 190)">
    <circle cx="0" cy="0" r="20" fill="#DBEAFE"/>
    <path d="M0 -12 L0 -8 M8.5 -8.5 L5.7 -5.7 M12 0 L8 0 M8.5 8.5 L5.7 5.7 M0 12 L0 8 M-8.5 8.5 L-5.7 5.7 M-12 0 L-8 0 M-8.5 -8.5 L-5.7 -5.7" 
          stroke="#3B82F6" stroke-width="2" stroke-linecap="round"/>
    <circle cx="0" cy="0" r="6" fill="#3B82F6"/>
    <circle cx="0" cy="0" r="3" fill="#DBEAFE"/>
    <animateTransform attributeName="transform" attributeType="XML" type="rotate" from="0" to="360" dur="10s" repeatCount="indefinite"/>
  </g>
</svg> 