<svg width="600" height="400" viewBox="0 0 600 400" fill="none" xmlns="http://www.w3.org/2000/svg">
  <!-- Background -->
  <rect width="600" height="400" rx="8" fill="#F8FAFC"/>
  
  <!-- Header -->
  <rect width="600" height="70" fill="#FFFFFF"/>
  <rect x="30" y="25" width="140" height="20" rx="4" fill="#0F172A"/>
  <rect x="350" y="25" width="40" height="20" rx="4" fill="#E2E8F0"/>
  <rect x="410" y="25" width="40" height="20" rx="4" fill="#E2E8F0"/>
  <rect x="470" y="25" width="40" height="20" rx="4" fill="#E2E8F0"/>
  <rect x="530" y="25" width="40" height="20" rx="4" fill="#E2E8F0"/>
  
  <!-- Hero Section -->
  <rect y="70" width="600" height="180" fill="#0F172A"/>
  <rect x="40" y="120" width="280" height="36" rx="4" fill="#FFFFFF"/>
  <rect x="40" y="166" width="240" height="14" rx="2" fill="#94A3B8"/>
  <rect x="40" y="190" width="220" height="14" rx="2" fill="#94A3B8"/>
  <rect x="40" y="220" width="120" height="40" rx="4" fill="#3B82F6"/>
  <rect x="170" y="220" width="120" height="40" rx="4" fill="transparent" stroke="#FFFFFF" stroke-width="1"/>
  
  <!-- Services Section -->
  <rect x="40" y="280" width="160" height="30" rx="4" fill="#0F172A"/>
  
  <!-- Service 1 -->
  <rect x="40" y="330" width="160" height="100" rx="8" fill="#FFFFFF" stroke="#E2E8F0" stroke-width="1"/>
  <circle cx="70" cy="355" r="15" fill="#DBEAFE"/>
  <path d="M70 350L74 356H66L70 350Z" fill="#3B82F6"/>
  <rect x="100" y="350" width="80" height="12" rx="2" fill="#0F172A"/>
  <rect x="60" y="380" width="120" height="8" rx="2" fill="#64748B"/>
  <rect x="60" y="395" width="100" height="8" rx="2" fill="#64748B"/>
  
  <!-- Service 2 -->
  <rect x="220" y="330" width="160" height="100" rx="8" fill="#FFFFFF" stroke="#E2E8F0" stroke-width="1"/>
  <circle cx="250" cy="355" r="15" fill="#E0E7FF"/>
  <path d="M246 355H254M250 351V359" stroke="#4F46E5" stroke-width="2" stroke-linecap="round"/>
  <rect x="280" y="350" width="80" height="12" rx="2" fill="#0F172A"/>
  <rect x="240" y="380" width="120" height="8" rx="2" fill="#64748B"/>
  <rect x="240" y="395" width="100" height="8" rx="2" fill="#64748B"/>
  
  <!-- Service 3 -->
  <rect x="400" y="330" width="160" height="100" rx="8" fill="#FFFFFF" stroke="#E2E8F0" stroke-width="1"/>
  <circle cx="430" cy="355" r="15" fill="#FEE2E2"/>
  <circle cx="430" cy="355" r="7" fill="#EF4444"/>
  <rect x="460" y="350" width="80" height="12" rx="2" fill="#0F172A"/>
  <rect x="420" y="380" width="120" height="8" rx="2" fill="#64748B"/>
  <rect x="420" y="395" width="100" height="8" rx="2" fill="#64748B"/>
</svg> 