<svg width="600" height="400" viewBox="0 0 600 400" fill="none" xmlns="http://www.w3.org/2000/svg">
  <!-- Background -->
  <rect width="600" height="400" rx="8" fill="#F9FAFB"/>
  
  <!-- Header -->
  <rect width="600" height="70" fill="#FFFFFF"/>
  <rect x="30" y="25" width="120" height="20" rx="4" fill="#4F46E5"/>
  <rect x="350" y="25" width="50" height="20" rx="4" fill="#E5E7EB"/>
  <rect x="420" y="25" width="50" height="20" rx="4" fill="#E5E7EB"/>
  <rect x="490" y="25" width="50" height="20" rx="4" fill="#E5E7EB"/>
  <circle cx="560" cy="35" r="15" fill="#E5E7EB"/>
  
  <!-- Hero Section -->
  <rect y="70" width="600" height="160" fill="#EEF2FF"/>
  <rect x="40" y="110" width="240" height="30" rx="4" fill="#4F46E5"/>
  <rect x="40" y="150" width="200" height="12" rx="2" fill="#6B7280"/>
  <rect x="40" y="170" width="180" height="12" rx="2" fill="#6B7280"/>
  <rect x="40" y="195" width="120" height="40" rx="20" fill="#4F46E5"/>
  <rect x="380" y="90" width="180" height="120" rx="8" fill="#FFFFFF"/>
  
  <!-- Product Grid -->
  <rect x="40" y="260" width="120" height="30" rx="4" fill="#111827"/>
  
  <!-- Product 1 -->
  <rect x="40" y="310" width="120" height="120" rx="8" fill="#FFFFFF" stroke="#E5E7EB" stroke-width="1"/>
  <rect x="50" y="320" width="100" height="70" rx="4" fill="#F3F4F6"/>
  <rect x="50" y="400" width="80" height="10" rx="2" fill="#374151"/>
  <rect x="50" y="415" width="40" height="8" rx="2" fill="#4F46E5"/>
  
  <!-- Product 2 -->
  <rect x="180" y="310" width="120" height="120" rx="8" fill="#FFFFFF" stroke="#E5E7EB" stroke-width="1"/>
  <rect x="190" y="320" width="100" height="70" rx="4" fill="#F3F4F6"/>
  <rect x="190" y="400" width="80" height="10" rx="2" fill="#374151"/>
  <rect x="190" y="415" width="40" height="8" rx="2" fill="#4F46E5"/>
  
  <!-- Product 3 -->
  <rect x="320" y="310" width="120" height="120" rx="8" fill="#FFFFFF" stroke="#E5E7EB" stroke-width="1"/>
  <rect x="330" y="320" width="100" height="70" rx="4" fill="#F3F4F6"/>
  <rect x="330" y="400" width="80" height="10" rx="2" fill="#374151"/>
  <rect x="330" y="415" width="40" height="8" rx="2" fill="#4F46E5"/>
  
  <!-- Product 4 -->
  <rect x="460" y="310" width="120" height="120" rx="8" fill="#FFFFFF" stroke="#E5E7EB" stroke-width="1"/>
  <rect x="470" y="320" width="100" height="70" rx="4" fill="#F3F4F6"/>
  <rect x="470" y="400" width="80" height="10" rx="2" fill="#374151"/>
  <rect x="470" y="415" width="40" height="8" rx="2" fill="#4F46E5"/>
</svg> 