<svg width="600" height="400" viewBox="0 0 600 400" fill="none" xmlns="http://www.w3.org/2000/svg">
  <!-- Background -->
  <rect width="600" height="400" rx="8" fill="#0F172A"/>
  
  <!-- Header -->
  <rect width="600" height="70" fill="#1E293B"/>
  <rect x="30" y="25" width="120" height="20" rx="4" fill="#FFFFFF"/>
  <rect x="350" y="25" width="40" height="20" rx="4" fill="#334155"/>
  <rect x="410" y="25" width="40" height="20" rx="4" fill="#334155"/>
  <rect x="470" y="25" width="40" height="20" rx="4" fill="#334155"/>
  <rect x="530" y="25" width="40" height="20" rx="4" fill="#EC4899"/>
  
  <!-- Hero Section -->
  <rect x="40" y="110" width="240" height="40" rx="4" fill="#FFFFFF"/>
  <rect x="40" y="160" width="200" height="12" rx="2" fill="#94A3B8"/>
  <rect x="40" y="180" width="180" height="12" rx="2" fill="#94A3B8"/>
  <rect x="40" y="210" width="120" height="40" rx="20" fill="#EC4899"/>
  
  <!-- Animated Gradient Element -->
  <circle cx="450" cy="150" r="80" fill="url(#paint0_radial)"/>
  <circle cx="450" cy="150" r="60" fill="#0F172A"/>
  
  <!-- Grid Section -->
  <rect x="40" y="280" width="150" height="30" rx="4" fill="#FFFFFF"/>
  
  <!-- Portfolio Items Grid -->
  <!-- Row 1 -->
  <rect x="40" y="330" width="160" height="160" rx="8" fill="#1E293B"/>
  <circle cx="120" cy="410" r="40" fill="#EC4899" fill-opacity="0.3"/>
  <circle cx="120" cy="410" r="25" fill="#EC4899"/>
  
  <rect x="220" y="330" width="160" height="160" rx="8" fill="#1E293B"/>
  <rect x="240" y="350" width="120" height="120" rx="8" fill="#334155"/>
  <rect x="260" y="370" width="80" height="80" rx="8" fill="#475569"/>
  
  <rect x="400" y="330" width="160" height="160" rx="8" fill="#1E293B"/>
  <path d="M480 370L510 430H450L480 370Z" fill="#8B5CF6"/>
  <path d="M480 430L450 370H510L480 430Z" fill="#EC4899"/>
  
  <!-- Decorative Elements -->
  <circle cx="120" cy="210" r="5" fill="#8B5CF6"/>
  <circle cx="140" cy="210" r="5" fill="#EC4899"/>
  <circle cx="160" cy="210" r="5" fill="#3B82F6"/>
  
  <!-- Gradient Definitions -->
  <defs>
    <radialGradient id="paint0_radial" cx="0" cy="0" r="1" gradientUnits="userSpaceOnUse" gradientTransform="translate(450 150) rotate(90) scale(80)">
      <stop offset="0" stop-color="#EC4899"/>
      <stop offset="0.5" stop-color="#8B5CF6"/>
      <stop offset="1" stop-color="#3B82F6"/>
    </radialGradient>
  </defs>
</svg> 