<svg width="600" height="400" viewBox="0 0 600 400" fill="none" xmlns="http://www.w3.org/2000/svg">
  <!-- Background -->
  <rect width="600" height="400" rx="8" fill="#FFFBEB"/>
  
  <!-- Header -->
  <rect width="600" height="70" fill="#FFFFFF"/>
  <rect x="30" y="25" width="140" height="20" rx="4" fill="#854D0E"/>
  <rect x="350" y="25" width="40" height="20" rx="4" fill="#FEF3C7"/>
  <rect x="410" y="25" width="40" height="20" rx="4" fill="#FEF3C7"/>
  <rect x="470" y="25" width="40" height="20" rx="4" fill="#FEF3C7"/>
  <rect x="530" y="25" width="80" height="20" rx="10" fill="#CA8A04"/>
  <rect x="545" y="32" width="50" height="6" rx="3" fill="#FFFFFF"/>
  
  <!-- Hero Section -->
  <rect y="70" width="600" height="180" fill="#000000" opacity="0.5"/>
  <rect y="70" width="600" height="180" fill="url(#paint0_linear)"/>
  <rect x="140" y="120" width="320" height="36" rx="4" fill="#FFFFFF"/>
  <rect x="180" y="166" width="240" height="14" rx="2" fill="#FEF3C7"/>
  <rect x="200" y="190" width="200" height="14" rx="2" fill="#FEF3C7"/>
  <rect x="240" y="220" width="120" height="40" rx="4" fill="#CA8A04"/>
  
  <!-- Food Menu Section -->
  <rect x="40" y="280" width="160" height="30" rx="4" fill="#854D0E"/>
  
  <!-- Menu Item 1 -->
  <rect x="40" y="330" width="160" height="120" rx="8" fill="#FFFFFF" stroke="#F7F3D7" stroke-width="1"/>
  <rect x="55" y="345" width="130" height="70" rx="4" fill="#FEF9C3"/>
  <circle cx="120" cy="380" r="28" fill="#FACC15"/>
  <rect x="55" y="425" width="100" height="10" rx="2" fill="#854D0E"/>
  <rect x="55" y="440" width="60" height="8" rx="2" fill="#CA8A04"/>
  
  <!-- Menu Item 2 -->
  <rect x="220" y="330" width="160" height="120" rx="8" fill="#FFFFFF" stroke="#F7F3D7" stroke-width="1"/>
  <rect x="235" y="345" width="130" height="70" rx="4" fill="#FEF9C3"/>
  <circle cx="300" cy="380" r="28" fill="#FACC15"/>
  <rect x="235" y="425" width="100" height="10" rx="2" fill="#854D0E"/>
  <rect x="235" y="440" width="60" height="8" rx="2" fill="#CA8A04"/>
  
  <!-- Menu Item 3 -->
  <rect x="400" y="330" width="160" height="120" rx="8" fill="#FFFFFF" stroke="#F7F3D7" stroke-width="1"/>
  <rect x="415" y="345" width="130" height="70" rx="4" fill="#FEF9C3"/>
  <circle cx="480" cy="380" r="28" fill="#FACC15"/>
  <rect x="415" y="425" width="100" height="10" rx="2" fill="#854D0E"/>
  <rect x="415" y="440" width="60" height="8" rx="2" fill="#CA8A04"/>
  
  <!-- Gradient for Hero Section -->
  <defs>
    <linearGradient id="paint0_linear" x1="300" y1="70" x2="300" y2="250" gradientUnits="userSpaceOnUse">
      <stop offset="0" stop-color="#000000" stop-opacity="0.7"/>
      <stop offset="1" stop-color="#000000" stop-opacity="0.3"/>
    </linearGradient>
  </defs>
</svg> 